<svg width="108" height="100" viewBox="0 0 108 100" fill="none" xmlns="http://www.w3.org/2000/svg" xmlns:xlink="http://www.w3.org/1999/xlink">
<path d="M108,50C108,77.614 83.823,100 54,100C24.177,100 0,77.614 0,50C0,22.386 24.177,0 54,0C83.823,0 108,22.386 108,50Z" fill="#242629"/>
<path d="M35,29.705L35,67.198C35,67.648 35.373,68.013 35.833,68.013L46.4,68.013C47.063,68.013 47.699,68.27 48.167,68.729C48.636,69.188 48.9,69.81 48.9,70.458C48.9,71.107 48.636,71.728 48.167,72.187C47.699,72.646 47.063,72.903 46.4,72.903L35.833,72.903C34.286,72.903 32.802,72.302 31.709,71.232C30.615,70.162 30,68.711 30,67.198L30,29.705C30,26.556 32.613,24 35.833,24L64.166,24C67.386,24 69.999,26.556 69.999,29.705L69.999,54.926C69.999,55.575 69.736,56.197 69.267,56.655C68.798,57.114 68.162,57.372 67.499,57.372C66.836,57.372 66.2,57.114 65.732,56.655C65.263,56.197 64.999,55.575 64.999,54.926L64.999,29.705C64.999,29.489 64.912,29.282 64.755,29.129C64.599,28.976 64.387,28.89 64.166,28.89L35.833,28.89C35.612,28.89 35.4,28.976 35.244,29.129C35.088,29.282 35,29.489 35,29.705ZM79.246,60.798L64.056,75.306C63.584,75.755 62.951,76.005 62.292,76C61.634,75.995 61.004,75.736 60.539,75.28L54.063,68.922C53.622,68.458 53.383,67.845 53.396,67.211C53.408,66.578 53.672,65.974 54.131,65.527C54.589,65.079 55.208,64.824 55.856,64.814C56.503,64.804 57.13,65.04 57.603,65.473L62.333,70.119L75.752,57.3C76.227,56.847 76.866,56.597 77.53,56.605C77.858,56.609 78.182,56.676 78.484,56.802C78.786,56.929 79.06,57.112 79.289,57.342C79.518,57.572 79.699,57.844 79.821,58.142C79.943,58.44 80.004,58.759 80,59.081C79.996,59.402 79.927,59.719 79.798,60.014C79.668,60.309 79.481,60.577 79.246,60.801M42.5,37.041L57.499,37.041C58.162,37.041 58.798,37.298 59.267,37.757C59.736,38.216 59.999,38.837 59.999,39.486C59.999,40.135 59.736,40.756 59.267,41.215C58.798,41.674 58.162,41.931 57.499,41.931L42.5,41.931C41.837,41.931 41.201,41.674 40.732,41.215C40.263,40.756 40,40.135 40,39.486C40,38.837 40.263,38.216 40.732,37.757C41.201,37.298 41.837,37.041 42.5,37.041ZM40,49.267C40,48.618 40.263,47.996 40.732,47.538C41.201,47.079 41.837,46.821 42.5,46.821L49.166,46.821C49.829,46.821 50.465,47.079 50.934,47.538C51.403,47.996 51.666,48.618 51.666,49.267C51.666,49.915 51.403,50.537 50.934,50.996C50.465,51.454 49.829,51.712 49.166,51.712L42.5,51.712C41.837,51.712 41.201,51.454 40.732,50.996C40.263,50.537 40,49.915 40,49.267Z" fill="#FFFFFF"/>
</svg>
