<svg width="108" height="100" viewBox="0 0 108 100" fill="none" xmlns="http://www.w3.org/2000/svg" xmlns:xlink="http://www.w3.org/1999/xlink">
<path d="M108,50C108,77.614 83.823,100 54,100C24.177,100 0,77.614 0,50C0,22.386 24.177,0 54,0C83.823,0 108,22.386 108,50Z" fill="#242629"/>
<path d="M53,21.933L54.257,20.464C53.906,20.165 53.461,20 53,20C52.539,20 52.094,20.165 51.743,20.464L53,21.933ZM25.933,45.133L24.677,43.664L24,44.244L24,45.133L25.933,45.133ZM45.267,76.067L45.267,78C45.779,78 46.271,77.796 46.634,77.434C46.996,77.071 47.2,76.579 47.2,76.067L45.267,76.067ZM60.733,76.067L58.8,76.067C58.8,76.579 59.004,77.071 59.366,77.434C59.729,77.796 60.221,78 60.733,78L60.733,76.067ZM80.067,45.133L82,45.133L82,44.244L81.323,43.664L80.067,45.133ZM29.8,78L45.267,78L45.267,74.133L29.8,74.133L29.8,78ZM81.323,43.664L54.257,20.464L51.743,23.403L78.81,46.603L81.323,43.664ZM51.743,20.464L24.677,43.664L27.19,46.603L54.257,23.403L51.743,20.464ZM47.2,76.067L47.2,64.467L43.333,64.467L43.333,76.067L47.2,76.067ZM58.8,64.467L58.8,76.067L62.667,76.067L62.667,64.467L58.8,64.467ZM60.733,78L76.2,78L76.2,74.133L60.733,74.133L60.733,78ZM82,72.2L82,45.133L78.133,45.133L78.133,72.2L82,72.2ZM24,45.133L24,72.2L27.867,72.2L27.867,45.133L24,45.133ZM53,58.667C54.538,58.667 56.014,59.278 57.101,60.365C58.189,61.453 58.8,62.928 58.8,64.467L62.667,64.467C62.667,61.903 61.648,59.444 59.835,57.631C58.023,55.818 55.564,54.8 53,54.8L53,58.667ZM53,54.8C50.436,54.8 47.977,55.818 46.165,57.631C44.352,59.444 43.333,61.903 43.333,64.467L47.2,64.467C47.2,62.928 47.811,61.453 48.899,60.365C49.986,59.278 51.462,58.667 53,58.667L53,54.8ZM76.2,78C77.738,78 79.214,77.389 80.301,76.301C81.389,75.214 82,73.738 82,72.2L78.133,72.2C78.133,72.713 77.93,73.205 77.567,73.567C77.205,73.93 76.713,74.133 76.2,74.133L76.2,78ZM29.8,74.133C29.287,74.133 28.796,73.93 28.433,73.567C28.07,73.205 27.867,72.713 27.867,72.2L24,72.2C24,73.738 24.611,75.214 25.699,76.301C26.787,77.389 28.262,78 29.8,78L29.8,74.133Z" fill="#FFFFFF"/>
</svg>
