<svg width="22" height="28" viewBox="0 0 22 28" fill="none" xmlns="http://www.w3.org/2000/svg" xmlns:xlink="http://www.w3.org/1999/xlink">
<path d="M18.297,12.08L18.257,12.1C18.717,12.64 19.117,13.28 19.417,13.94L19.597,14.32C21.017,17.7 20.017,21.6 17.397,24.04C15.017,26.22 11.697,26.8 8.617,26.4C5.697,26.04 3.017,24.2 1.477,21.66C1.017,20.88 0.617,20 0.417,19.1C0.157,18.36 0.077,17.64 0.017,16.9C-0.163,13.7 1.117,10.3 3.537,8.3C2.437,10.72 2.697,13.74 4.317,15.84L4.537,16.1C4.817,16.34 5.157,16.42 5.477,16.28C5.777,16.16 6.017,15.86 6.017,15.5L5.877,15.06C4.117,10.42 5.597,5 9.337,1.94C10.357,1.1 11.617,0.34 12.937,0C11.577,2.72 12.017,6.28 14.197,8.42C15.117,9.36 16.217,9.98 17.177,10.86L18.297,12.08ZM13.737,21.36L13.717,21.34C14.617,20.56 15.117,19.22 15.077,18.02L15.017,17.38C14.617,15.38 12.877,14.72 11.757,13.26C11.417,12.82 11.117,12.26 10.897,11.7C10.457,12.7 10.417,13.64 10.597,14.72C10.797,15.86 11.257,16.84 11.017,18.02C10.697,19.32 9.677,20.62 7.897,21.04C8.897,22.02 10.517,22.8 12.137,22.24C12.657,22.1 13.317,21.72 13.737,21.36Z" fill="#F24E1E"/>
</svg>
